<svg width="48" height="48" viewBox="0 0 48 48" fill="none" xmlns="http://www.w3.org/2000/svg">
<g clip-path="url(#clip0)">
<path fill-rule="evenodd" clip-rule="evenodd" d="M22.7371 31.074C24.0571 31.074 25.1871 32.162 25.1871 33.569C25.1871 34.912 24.0571 36 22.7371 36C21.4181 36 20.2871 34.912 20.2871 33.569C20.2871 32.162 21.4181 31.074 22.7371 31.074ZM30.3371 31.074C31.6571 31.074 32.7871 32.162 32.7871 33.569C32.7871 34.912 31.6571 36 30.3371 36C29.0181 36 27.8871 34.912 27.8871 33.569C27.8871 32.162 29.0181 31.074 30.3371 31.074ZM22.7371 32.354C22.0471 32.354 21.5441 32.865 21.5441 33.569C21.5441 34.209 22.0461 34.721 22.7371 34.721C23.3651 34.721 23.9311 34.209 23.9311 33.569C23.9311 32.865 23.3651 32.353 22.7371 32.353V32.354ZM30.3371 32.354C29.7091 32.354 29.1441 32.865 29.1441 33.569C29.1441 34.209 29.7091 34.721 30.3371 34.721C30.9651 34.721 31.5311 34.209 31.5311 33.569C31.5311 32.865 30.9651 32.353 30.3371 32.353V32.354ZM12.6871 12.008L16.8961 12.968C17.1471 13.032 17.2731 13.16 17.3361 13.416L18.3401 18.279H35.4881C35.8021 18.279 36.0531 18.599 35.9901 18.983L33.6661 27.427C33.6031 27.683 33.4161 27.811 33.1641 27.811H20.2881L20.5381 29.219H32.9751C33.6661 29.219 33.6661 30.499 32.9751 30.499H19.9741C19.844 30.495 19.7186 30.4491 19.6167 30.3683C19.5147 30.2874 19.4415 30.1758 19.4081 30.05L16.2051 14.12L12.4361 13.29C11.6831 13.097 11.9961 11.88 12.6871 12.009V12.008ZM34.5461 19.558H18.5921L19.9741 26.531H32.6601L34.5451 19.557L34.5461 19.558Z" fill="white"/>
</g>
<defs>
<clipPath id="clip0">
<rect width="24" height="24" fill="white" transform="translate(12 12)"/>
</clipPath>
</defs>
</svg>
